<svg xmlns="http://www.w3.org/2000/svg" width="24" height="24" viewBox="0 0 24 24">
    <path fill="#999" fill-rule="evenodd" d="M8.04 18.4H4.852V5.853H8.04a.929.929 0 0 0 .926-.926A.929.929 0 0 0 8.04 4H3.926A.929.929 0 0 0 3 4.926v14.4c0 .51.417.926.926.926H8.04a.929.929 0 0 0 .926-.925.929.929 0 0 0-.926-.926zm9.267-7.014h-9.36a.929.929 0 0 0-.926.926c0 .51.417.926.926.926h9.36v1.944c0 .37.443.552.699.287l2.87-2.87a.406.406 0 0 0 0-.584l-2.87-2.87c-.256-.256-.699-.071-.699.297v1.944z"/>
</svg>
